<mxfile host="Electron" modified="2023-10-28T11:41:01.681Z" agent="Mozilla/5.0 (Windows NT 10.0; Win64; x64) AppleWebKit/537.36 (KHTML, like Gecko) draw.io/22.0.3 Chrome/114.0.5735.289 Electron/25.8.4 Safari/537.36" version="22.0.3" etag="pK0kfQPCJstxWssrOWuD" type="device">
  <diagram id="_ApbRWfra_uurpse-eud" name="Page-1">
    <mxGraphModel dx="850" dy="824" grid="1" gridSize="10" guides="1" tooltips="1" connect="1" arrows="1" fold="1" page="1" pageScale="1" pageWidth="1169" pageHeight="827" math="0" shadow="0">
      <root>
        <mxCell id="0" />
        <mxCell id="1" parent="0" />
        <mxCell id="7wm5faih9teGjjyQHVdP-69" value="" style="rounded=0;whiteSpace=wrap;html=1;strokeWidth=2;dashed=1;fillColor=none;" vertex="1" parent="1">
          <mxGeometry x="720" y="140" width="440" height="660" as="geometry" />
        </mxCell>
        <mxCell id="7wm5faih9teGjjyQHVdP-1" value="&lt;h1&gt;boudicca.base&lt;/h1&gt;&lt;p&gt;Event collecting and publishing platform&lt;/p&gt;" style="text;html=1;strokeColor=none;fillColor=none;spacing=5;spacingTop=-20;whiteSpace=wrap;overflow=hidden;rounded=0;" vertex="1" parent="1">
          <mxGeometry x="930" y="40" width="190" height="120" as="geometry" />
        </mxCell>
        <mxCell id="7wm5faih9teGjjyQHVdP-2" value="Website A" style="shape=note;whiteSpace=wrap;html=1;backgroundOutline=1;darkOpacity=0.05;" vertex="1" parent="1">
          <mxGeometry x="40" y="160" width="80" height="100" as="geometry" />
        </mxCell>
        <mxCell id="7wm5faih9teGjjyQHVdP-3" value="Website B" style="shape=note;whiteSpace=wrap;html=1;backgroundOutline=1;darkOpacity=0.05;" vertex="1" parent="1">
          <mxGeometry x="40" y="280" width="80" height="100" as="geometry" />
        </mxCell>
        <mxCell id="7wm5faih9teGjjyQHVdP-4" value="Website C" style="shape=note;whiteSpace=wrap;html=1;backgroundOutline=1;darkOpacity=0.05;" vertex="1" parent="1">
          <mxGeometry x="40" y="400" width="80" height="100" as="geometry" />
        </mxCell>
        <mxCell id="7wm5faih9teGjjyQHVdP-5" value="CSV/Excel Documents" style="shape=note;whiteSpace=wrap;html=1;backgroundOutline=1;darkOpacity=0.05;" vertex="1" parent="1">
          <mxGeometry x="40" y="520" width="80" height="100" as="geometry" />
        </mxCell>
        <mxCell id="7wm5faih9teGjjyQHVdP-7" value="other data sources" style="shape=cylinder3;whiteSpace=wrap;html=1;boundedLbl=1;backgroundOutline=1;size=15;" vertex="1" parent="1">
          <mxGeometry x="40" y="640" width="80" height="100" as="geometry" />
        </mxCell>
        <mxCell id="7wm5faih9teGjjyQHVdP-34" style="edgeStyle=orthogonalEdgeStyle;rounded=0;orthogonalLoop=1;jettySize=auto;html=1;exitX=1;exitY=0.25;exitDx=0;exitDy=0;entryX=0.117;entryY=1.014;entryDx=0;entryDy=0;strokeWidth=2;dashed=1;dashPattern=1 1;entryPerimeter=0;" edge="1" parent="1" source="7wm5faih9teGjjyQHVdP-8" target="7wm5faih9teGjjyQHVdP-13">
          <mxGeometry relative="1" as="geometry" />
        </mxCell>
        <mxCell id="7wm5faih9teGjjyQHVdP-36" style="edgeStyle=orthogonalEdgeStyle;rounded=0;orthogonalLoop=1;jettySize=auto;html=1;exitX=1;exitY=0.75;exitDx=0;exitDy=0;entryX=0;entryY=0.5;entryDx=0;entryDy=0;strokeWidth=3;" edge="1" parent="1" source="7wm5faih9teGjjyQHVdP-8" target="7wm5faih9teGjjyQHVdP-16">
          <mxGeometry relative="1" as="geometry" />
        </mxCell>
        <mxCell id="7wm5faih9teGjjyQHVdP-37" style="edgeStyle=orthogonalEdgeStyle;rounded=0;orthogonalLoop=1;jettySize=auto;html=1;exitX=1;exitY=0.25;exitDx=0;exitDy=0;entryX=0.25;entryY=1;entryDx=0;entryDy=0;strokeWidth=2;dashed=1;dashPattern=1 1;" edge="1" parent="1" source="7wm5faih9teGjjyQHVdP-8" target="7wm5faih9teGjjyQHVdP-14">
          <mxGeometry relative="1" as="geometry" />
        </mxCell>
        <mxCell id="7wm5faih9teGjjyQHVdP-8" value="Event Collector A" style="rounded=1;whiteSpace=wrap;html=1;" vertex="1" parent="1">
          <mxGeometry x="160" y="180" width="120" height="60" as="geometry" />
        </mxCell>
        <mxCell id="7wm5faih9teGjjyQHVdP-33" style="edgeStyle=orthogonalEdgeStyle;rounded=0;orthogonalLoop=1;jettySize=auto;html=1;exitX=0.997;exitY=0.344;exitDx=0;exitDy=0;strokeWidth=2;exitPerimeter=0;entryX=0.35;entryY=1.011;entryDx=0;entryDy=0;dashed=1;dashPattern=1 1;entryPerimeter=0;" edge="1" parent="1" source="7wm5faih9teGjjyQHVdP-9" target="7wm5faih9teGjjyQHVdP-14">
          <mxGeometry relative="1" as="geometry">
            <mxPoint x="520" y="150" as="targetPoint" />
          </mxGeometry>
        </mxCell>
        <mxCell id="7wm5faih9teGjjyQHVdP-62" style="edgeStyle=orthogonalEdgeStyle;rounded=0;orthogonalLoop=1;jettySize=auto;html=1;exitX=1;exitY=0.75;exitDx=0;exitDy=0;entryX=0;entryY=0.5;entryDx=0;entryDy=0;strokeWidth=3;" edge="1" parent="1" source="7wm5faih9teGjjyQHVdP-9" target="7wm5faih9teGjjyQHVdP-16">
          <mxGeometry relative="1" as="geometry" />
        </mxCell>
        <mxCell id="7wm5faih9teGjjyQHVdP-9" value="Event Collector B" style="rounded=1;whiteSpace=wrap;html=1;" vertex="1" parent="1">
          <mxGeometry x="160" y="300" width="120" height="60" as="geometry" />
        </mxCell>
        <mxCell id="7wm5faih9teGjjyQHVdP-47" style="edgeStyle=orthogonalEdgeStyle;rounded=0;orthogonalLoop=1;jettySize=auto;html=1;exitX=1;exitY=0.75;exitDx=0;exitDy=0;entryX=0;entryY=0.5;entryDx=0;entryDy=0;strokeWidth=3;" edge="1" parent="1" source="7wm5faih9teGjjyQHVdP-10" target="7wm5faih9teGjjyQHVdP-16">
          <mxGeometry relative="1" as="geometry" />
        </mxCell>
        <mxCell id="7wm5faih9teGjjyQHVdP-55" style="edgeStyle=orthogonalEdgeStyle;rounded=0;orthogonalLoop=1;jettySize=auto;html=1;exitX=1;exitY=0.25;exitDx=0;exitDy=0;strokeWidth=2;dashed=1;dashPattern=1 1;entryX=0.25;entryY=1;entryDx=0;entryDy=0;" edge="1" parent="1" source="7wm5faih9teGjjyQHVdP-10" target="7wm5faih9teGjjyQHVdP-13">
          <mxGeometry relative="1" as="geometry">
            <mxPoint x="340" y="130" as="targetPoint" />
          </mxGeometry>
        </mxCell>
        <mxCell id="7wm5faih9teGjjyQHVdP-10" value="Event Collector C" style="rounded=1;whiteSpace=wrap;html=1;" vertex="1" parent="1">
          <mxGeometry x="160" y="420" width="120" height="60" as="geometry" />
        </mxCell>
        <mxCell id="7wm5faih9teGjjyQHVdP-46" style="edgeStyle=orthogonalEdgeStyle;rounded=0;orthogonalLoop=1;jettySize=auto;html=1;exitX=1;exitY=0.75;exitDx=0;exitDy=0;entryX=0;entryY=0.5;entryDx=0;entryDy=0;strokeWidth=3;" edge="1" parent="1" source="7wm5faih9teGjjyQHVdP-11" target="7wm5faih9teGjjyQHVdP-16">
          <mxGeometry relative="1" as="geometry">
            <mxPoint x="470" y="410" as="targetPoint" />
          </mxGeometry>
        </mxCell>
        <mxCell id="7wm5faih9teGjjyQHVdP-56" style="edgeStyle=orthogonalEdgeStyle;rounded=0;orthogonalLoop=1;jettySize=auto;html=1;exitX=1;exitY=0.25;exitDx=0;exitDy=0;entryX=0.366;entryY=1.002;entryDx=0;entryDy=0;strokeWidth=2;dashed=1;dashPattern=1 1;entryPerimeter=0;" edge="1" parent="1" source="7wm5faih9teGjjyQHVdP-11" target="7wm5faih9teGjjyQHVdP-13">
          <mxGeometry relative="1" as="geometry">
            <mxPoint x="370" y="140" as="targetPoint" />
          </mxGeometry>
        </mxCell>
        <mxCell id="7wm5faih9teGjjyQHVdP-11" value="Event Collector D" style="rounded=1;whiteSpace=wrap;html=1;" vertex="1" parent="1">
          <mxGeometry x="160" y="540" width="120" height="60" as="geometry" />
        </mxCell>
        <mxCell id="7wm5faih9teGjjyQHVdP-45" style="edgeStyle=orthogonalEdgeStyle;rounded=0;orthogonalLoop=1;jettySize=auto;html=1;exitX=1;exitY=0.75;exitDx=0;exitDy=0;entryX=0;entryY=0.5;entryDx=0;entryDy=0;strokeWidth=3;" edge="1" parent="1" source="7wm5faih9teGjjyQHVdP-12" target="7wm5faih9teGjjyQHVdP-16">
          <mxGeometry relative="1" as="geometry" />
        </mxCell>
        <mxCell id="7wm5faih9teGjjyQHVdP-12" value="Event Collector X" style="rounded=1;whiteSpace=wrap;html=1;" vertex="1" parent="1">
          <mxGeometry x="160" y="660" width="120" height="60" as="geometry" />
        </mxCell>
        <mxCell id="7wm5faih9teGjjyQHVdP-35" style="edgeStyle=orthogonalEdgeStyle;rounded=0;orthogonalLoop=1;jettySize=auto;html=1;exitX=0.605;exitY=1.002;exitDx=0;exitDy=0;entryX=1;entryY=0.5;entryDx=0;entryDy=0;strokeWidth=2;dashed=1;dashPattern=1 1;exitPerimeter=0;" edge="1" parent="1" source="7wm5faih9teGjjyQHVdP-13" target="7wm5faih9teGjjyQHVdP-8">
          <mxGeometry relative="1" as="geometry" />
        </mxCell>
        <mxCell id="7wm5faih9teGjjyQHVdP-58" style="edgeStyle=orthogonalEdgeStyle;rounded=0;orthogonalLoop=1;jettySize=auto;html=1;entryX=1;entryY=0.5;entryDx=0;entryDy=0;strokeWidth=2;dashed=1;dashPattern=1 1;exitX=0.674;exitY=1.006;exitDx=0;exitDy=0;exitPerimeter=0;" edge="1" parent="1" source="7wm5faih9teGjjyQHVdP-13" target="7wm5faih9teGjjyQHVdP-11">
          <mxGeometry relative="1" as="geometry">
            <mxPoint x="380" y="140" as="sourcePoint" />
          </mxGeometry>
        </mxCell>
        <mxCell id="7wm5faih9teGjjyQHVdP-59" style="edgeStyle=orthogonalEdgeStyle;rounded=0;orthogonalLoop=1;jettySize=auto;html=1;entryX=1;entryY=0.5;entryDx=0;entryDy=0;strokeWidth=2;dashed=1;dashPattern=1 1;exitX=0.75;exitY=1;exitDx=0;exitDy=0;" edge="1" parent="1" source="7wm5faih9teGjjyQHVdP-13" target="7wm5faih9teGjjyQHVdP-10">
          <mxGeometry relative="1" as="geometry">
            <mxPoint x="440" y="160" as="sourcePoint" />
          </mxGeometry>
        </mxCell>
        <mxCell id="7wm5faih9teGjjyQHVdP-13" value="Event Enricher A&lt;br&gt;(Optional)" style="rounded=1;whiteSpace=wrap;html=1;dashed=1;" vertex="1" parent="1">
          <mxGeometry x="290" y="60" width="110" height="60" as="geometry" />
        </mxCell>
        <mxCell id="7wm5faih9teGjjyQHVdP-38" style="edgeStyle=orthogonalEdgeStyle;rounded=0;orthogonalLoop=1;jettySize=auto;html=1;entryX=1;entryY=0.5;entryDx=0;entryDy=0;strokeWidth=2;exitX=0.648;exitY=0.998;exitDx=0;exitDy=0;dashed=1;dashPattern=1 1;exitPerimeter=0;" edge="1" parent="1" source="7wm5faih9teGjjyQHVdP-14" target="7wm5faih9teGjjyQHVdP-8">
          <mxGeometry relative="1" as="geometry">
            <mxPoint x="620" y="190" as="sourcePoint" />
          </mxGeometry>
        </mxCell>
        <mxCell id="7wm5faih9teGjjyQHVdP-61" style="edgeStyle=orthogonalEdgeStyle;rounded=0;orthogonalLoop=1;jettySize=auto;html=1;exitX=0.75;exitY=1;exitDx=0;exitDy=0;entryX=1;entryY=0.5;entryDx=0;entryDy=0;strokeWidth=2;dashed=1;dashPattern=1 1;" edge="1" parent="1" source="7wm5faih9teGjjyQHVdP-14" target="7wm5faih9teGjjyQHVdP-9">
          <mxGeometry relative="1" as="geometry" />
        </mxCell>
        <mxCell id="7wm5faih9teGjjyQHVdP-14" value="Event Enricher B&lt;br&gt;(Optional)" style="rounded=1;whiteSpace=wrap;html=1;dashed=1;" vertex="1" parent="1">
          <mxGeometry x="420" y="60" width="110" height="60" as="geometry" />
        </mxCell>
        <mxCell id="7wm5faih9teGjjyQHVdP-49" style="edgeStyle=orthogonalEdgeStyle;rounded=0;orthogonalLoop=1;jettySize=auto;html=1;exitX=1;exitY=0.5;exitDx=0;exitDy=0;entryX=0;entryY=0.5;entryDx=0;entryDy=0;strokeWidth=3;" edge="1" parent="1" source="7wm5faih9teGjjyQHVdP-16" target="7wm5faih9teGjjyQHVdP-19">
          <mxGeometry relative="1" as="geometry">
            <Array as="points">
              <mxPoint x="780" y="370" />
              <mxPoint x="780" y="254" />
            </Array>
          </mxGeometry>
        </mxCell>
        <mxCell id="7wm5faih9teGjjyQHVdP-50" style="edgeStyle=orthogonalEdgeStyle;rounded=0;orthogonalLoop=1;jettySize=auto;html=1;exitX=1;exitY=0.5;exitDx=0;exitDy=0;entryX=0;entryY=0.5;entryDx=0;entryDy=0;strokeWidth=3;" edge="1" parent="1" source="7wm5faih9teGjjyQHVdP-16" target="7wm5faih9teGjjyQHVdP-20">
          <mxGeometry relative="1" as="geometry" />
        </mxCell>
        <mxCell id="7wm5faih9teGjjyQHVdP-51" style="edgeStyle=orthogonalEdgeStyle;rounded=0;orthogonalLoop=1;jettySize=auto;html=1;exitX=1;exitY=0.5;exitDx=0;exitDy=0;entryX=0;entryY=0.5;entryDx=0;entryDy=0;strokeWidth=3;" edge="1" parent="1" source="7wm5faih9teGjjyQHVdP-16" target="7wm5faih9teGjjyQHVdP-17">
          <mxGeometry relative="1" as="geometry">
            <Array as="points">
              <mxPoint x="780" y="370" />
              <mxPoint x="780" y="490" />
              <mxPoint x="750" y="490" />
              <mxPoint x="750" y="600" />
            </Array>
          </mxGeometry>
        </mxCell>
        <mxCell id="7wm5faih9teGjjyQHVdP-52" style="edgeStyle=orthogonalEdgeStyle;rounded=0;orthogonalLoop=1;jettySize=auto;html=1;exitX=1;exitY=0.5;exitDx=0;exitDy=0;entryX=0;entryY=0.5;entryDx=0;entryDy=0;strokeWidth=3;" edge="1" parent="1" source="7wm5faih9teGjjyQHVdP-16" target="7wm5faih9teGjjyQHVdP-18">
          <mxGeometry relative="1" as="geometry">
            <Array as="points">
              <mxPoint x="780" y="370" />
              <mxPoint x="780" y="490" />
              <mxPoint x="750" y="490" />
              <mxPoint x="750" y="720" />
            </Array>
          </mxGeometry>
        </mxCell>
        <mxCell id="7wm5faih9teGjjyQHVdP-71" style="edgeStyle=orthogonalEdgeStyle;rounded=0;orthogonalLoop=1;jettySize=auto;html=1;exitX=0.5;exitY=1;exitDx=0;exitDy=0;entryX=0.5;entryY=0;entryDx=0;entryDy=0;strokeWidth=2;" edge="1" parent="1" source="7wm5faih9teGjjyQHVdP-16" target="7wm5faih9teGjjyQHVdP-70">
          <mxGeometry relative="1" as="geometry" />
        </mxCell>
        <mxCell id="7wm5faih9teGjjyQHVdP-16" value="EventDB" style="rounded=1;whiteSpace=wrap;html=1;" vertex="1" parent="1">
          <mxGeometry x="585" y="340" width="120" height="60" as="geometry" />
        </mxCell>
        <mxCell id="7wm5faih9teGjjyQHVdP-30" style="edgeStyle=orthogonalEdgeStyle;rounded=0;orthogonalLoop=1;jettySize=auto;html=1;exitX=1;exitY=0.5;exitDx=0;exitDy=0;strokeWidth=3;" edge="1" parent="1" source="7wm5faih9teGjjyQHVdP-17" target="7wm5faih9teGjjyQHVdP-29">
          <mxGeometry relative="1" as="geometry" />
        </mxCell>
        <mxCell id="7wm5faih9teGjjyQHVdP-17" value="HTML Publisher" style="rounded=1;whiteSpace=wrap;html=1;" vertex="1" parent="1">
          <mxGeometry x="780" y="570" width="120" height="60" as="geometry" />
        </mxCell>
        <mxCell id="7wm5faih9teGjjyQHVdP-32" style="edgeStyle=orthogonalEdgeStyle;rounded=0;orthogonalLoop=1;jettySize=auto;html=1;exitX=1;exitY=0.5;exitDx=0;exitDy=0;strokeWidth=3;" edge="1" parent="1" source="7wm5faih9teGjjyQHVdP-18" target="7wm5faih9teGjjyQHVdP-31">
          <mxGeometry relative="1" as="geometry" />
        </mxCell>
        <mxCell id="7wm5faih9teGjjyQHVdP-18" value="CSV Publisher" style="rounded=1;whiteSpace=wrap;html=1;" vertex="1" parent="1">
          <mxGeometry x="780" y="690" width="120" height="60" as="geometry" />
        </mxCell>
        <mxCell id="7wm5faih9teGjjyQHVdP-19" value="iCal Publisher" style="rounded=1;whiteSpace=wrap;html=1;" vertex="1" parent="1">
          <mxGeometry x="840" y="224" width="120" height="60" as="geometry" />
        </mxCell>
        <mxCell id="7wm5faih9teGjjyQHVdP-20" value="Archive DB&lt;br&gt;Publisher" style="rounded=1;whiteSpace=wrap;html=1;" vertex="1" parent="1">
          <mxGeometry x="840" y="340" width="120" height="60" as="geometry" />
        </mxCell>
        <mxCell id="7wm5faih9teGjjyQHVdP-21" value="persistent&lt;br&gt;database" style="shape=cylinder3;whiteSpace=wrap;html=1;boundedLbl=1;backgroundOutline=1;size=15;" vertex="1" parent="1">
          <mxGeometry x="1050" y="330" width="60" height="80" as="geometry" />
        </mxCell>
        <mxCell id="7wm5faih9teGjjyQHVdP-26" value="" style="html=1;dashed=0;aspect=fixed;verticalLabelPosition=bottom;verticalAlign=top;align=center;shape=mxgraph.gmdl.calendar;strokeColor=none;fillColor=#737373;shadow=0;sketch=0;" vertex="1" parent="1">
          <mxGeometry x="1040" y="214" width="80" height="80" as="geometry" />
        </mxCell>
        <mxCell id="7wm5faih9teGjjyQHVdP-27" style="edgeStyle=orthogonalEdgeStyle;rounded=0;orthogonalLoop=1;jettySize=auto;html=1;exitX=1;exitY=0.5;exitDx=0;exitDy=0;entryX=-0.025;entryY=0.5;entryDx=0;entryDy=0;entryPerimeter=0;strokeWidth=3;" edge="1" parent="1" source="7wm5faih9teGjjyQHVdP-19" target="7wm5faih9teGjjyQHVdP-26">
          <mxGeometry relative="1" as="geometry">
            <mxPoint x="1010" y="294" as="targetPoint" />
          </mxGeometry>
        </mxCell>
        <mxCell id="7wm5faih9teGjjyQHVdP-28" style="edgeStyle=orthogonalEdgeStyle;rounded=0;orthogonalLoop=1;jettySize=auto;html=1;exitX=1;exitY=0.5;exitDx=0;exitDy=0;entryX=0;entryY=0.5;entryDx=0;entryDy=0;entryPerimeter=0;strokeWidth=3;" edge="1" parent="1" source="7wm5faih9teGjjyQHVdP-20" target="7wm5faih9teGjjyQHVdP-21">
          <mxGeometry relative="1" as="geometry" />
        </mxCell>
        <mxCell id="7wm5faih9teGjjyQHVdP-29" value="Web App" style="shape=note;whiteSpace=wrap;html=1;backgroundOutline=1;darkOpacity=0.05;" vertex="1" parent="1">
          <mxGeometry x="960" y="550" width="80" height="100" as="geometry" />
        </mxCell>
        <mxCell id="7wm5faih9teGjjyQHVdP-31" value="CSV Files" style="shape=note;whiteSpace=wrap;html=1;backgroundOutline=1;darkOpacity=0.05;" vertex="1" parent="1">
          <mxGeometry x="960" y="670" width="80" height="100" as="geometry" />
        </mxCell>
        <mxCell id="7wm5faih9teGjjyQHVdP-40" style="edgeStyle=orthogonalEdgeStyle;rounded=0;orthogonalLoop=1;jettySize=auto;html=1;exitX=0;exitY=0.5;exitDx=0;exitDy=0;entryX=0;entryY=0;entryDx=80;entryDy=65;entryPerimeter=0;" edge="1" parent="1" source="7wm5faih9teGjjyQHVdP-8" target="7wm5faih9teGjjyQHVdP-2">
          <mxGeometry relative="1" as="geometry" />
        </mxCell>
        <mxCell id="7wm5faih9teGjjyQHVdP-41" style="edgeStyle=orthogonalEdgeStyle;rounded=0;orthogonalLoop=1;jettySize=auto;html=1;exitX=0;exitY=0.5;exitDx=0;exitDy=0;entryX=0;entryY=0;entryDx=80;entryDy=65;entryPerimeter=0;" edge="1" parent="1" source="7wm5faih9teGjjyQHVdP-9" target="7wm5faih9teGjjyQHVdP-3">
          <mxGeometry relative="1" as="geometry" />
        </mxCell>
        <mxCell id="7wm5faih9teGjjyQHVdP-42" style="edgeStyle=orthogonalEdgeStyle;rounded=0;orthogonalLoop=1;jettySize=auto;html=1;exitX=0;exitY=0.5;exitDx=0;exitDy=0;entryX=0;entryY=0;entryDx=80;entryDy=65;entryPerimeter=0;" edge="1" parent="1" source="7wm5faih9teGjjyQHVdP-10" target="7wm5faih9teGjjyQHVdP-4">
          <mxGeometry relative="1" as="geometry" />
        </mxCell>
        <mxCell id="7wm5faih9teGjjyQHVdP-43" style="edgeStyle=orthogonalEdgeStyle;rounded=0;orthogonalLoop=1;jettySize=auto;html=1;exitX=0;exitY=0.5;exitDx=0;exitDy=0;entryX=0;entryY=0;entryDx=80;entryDy=65;entryPerimeter=0;" edge="1" parent="1" source="7wm5faih9teGjjyQHVdP-11" target="7wm5faih9teGjjyQHVdP-5">
          <mxGeometry relative="1" as="geometry" />
        </mxCell>
        <mxCell id="7wm5faih9teGjjyQHVdP-44" style="edgeStyle=orthogonalEdgeStyle;rounded=0;orthogonalLoop=1;jettySize=auto;html=1;exitX=0;exitY=0.5;exitDx=0;exitDy=0;entryX=1;entryY=0.5;entryDx=0;entryDy=0;entryPerimeter=0;" edge="1" parent="1" source="7wm5faih9teGjjyQHVdP-12" target="7wm5faih9teGjjyQHVdP-7">
          <mxGeometry relative="1" as="geometry" />
        </mxCell>
        <mxCell id="7wm5faih9teGjjyQHVdP-53" value="User" style="shape=umlActor;verticalLabelPosition=bottom;verticalAlign=top;html=1;outlineConnect=0;" vertex="1" parent="1">
          <mxGeometry x="1080" y="590" width="30" height="60" as="geometry" />
        </mxCell>
        <mxCell id="7wm5faih9teGjjyQHVdP-66" value="" style="rounded=0;whiteSpace=wrap;html=1;strokeWidth=2;dashed=1;fillColor=none;fontStyle=1" vertex="1" parent="1">
          <mxGeometry x="20" y="40" width="540" height="720" as="geometry" />
        </mxCell>
        <mxCell id="7wm5faih9teGjjyQHVdP-67" value="Event Collection" style="text;strokeColor=none;fillColor=none;html=1;fontSize=24;fontStyle=1;verticalAlign=middle;align=left;" vertex="1" parent="1">
          <mxGeometry x="40" y="60" width="100" height="40" as="geometry" />
        </mxCell>
        <mxCell id="7wm5faih9teGjjyQHVdP-68" value="Publishing" style="text;strokeColor=none;fillColor=none;html=1;fontSize=24;fontStyle=1;verticalAlign=middle;align=left;" vertex="1" parent="1">
          <mxGeometry x="760" y="160" width="100" height="40" as="geometry" />
        </mxCell>
        <mxCell id="7wm5faih9teGjjyQHVdP-72" style="edgeStyle=orthogonalEdgeStyle;rounded=0;orthogonalLoop=1;jettySize=auto;html=1;exitX=1;exitY=0.5;exitDx=0;exitDy=0;entryX=0;entryY=0.75;entryDx=0;entryDy=0;strokeWidth=2;dashed=1;dashPattern=1 1;" edge="1" parent="1" source="7wm5faih9teGjjyQHVdP-70" target="7wm5faih9teGjjyQHVdP-17">
          <mxGeometry relative="1" as="geometry">
            <Array as="points">
              <mxPoint x="730" y="470" />
              <mxPoint x="730" y="615" />
            </Array>
          </mxGeometry>
        </mxCell>
        <mxCell id="7wm5faih9teGjjyQHVdP-73" style="edgeStyle=orthogonalEdgeStyle;rounded=0;orthogonalLoop=1;jettySize=auto;html=1;exitX=1;exitY=0.5;exitDx=0;exitDy=0;entryX=0;entryY=0.75;entryDx=0;entryDy=0;strokeWidth=2;dashed=1;dashPattern=1 1;" edge="1" parent="1" source="7wm5faih9teGjjyQHVdP-70" target="7wm5faih9teGjjyQHVdP-18">
          <mxGeometry relative="1" as="geometry">
            <Array as="points">
              <mxPoint x="730" y="470" />
              <mxPoint x="730" y="735" />
            </Array>
          </mxGeometry>
        </mxCell>
        <mxCell id="7wm5faih9teGjjyQHVdP-74" style="edgeStyle=orthogonalEdgeStyle;rounded=0;orthogonalLoop=1;jettySize=auto;html=1;exitX=1;exitY=0.5;exitDx=0;exitDy=0;entryX=0;entryY=0.75;entryDx=0;entryDy=0;strokeWidth=2;dashed=1;dashPattern=1 1;" edge="1" parent="1" source="7wm5faih9teGjjyQHVdP-70" target="7wm5faih9teGjjyQHVdP-19">
          <mxGeometry relative="1" as="geometry">
            <Array as="points">
              <mxPoint x="800" y="470" />
              <mxPoint x="800" y="269" />
            </Array>
          </mxGeometry>
        </mxCell>
        <mxCell id="7wm5faih9teGjjyQHVdP-70" value="Search Service" style="rounded=1;whiteSpace=wrap;html=1;" vertex="1" parent="1">
          <mxGeometry x="585" y="440" width="120" height="60" as="geometry" />
        </mxCell>
      </root>
    </mxGraphModel>
  </diagram>
</mxfile>
